[h264 @ 0x55ff0d429080] Reinit context to 1440x1088, pix_fmt: yuv420p
Input #0, mov,mp4,m4a,3gp,3g2,mj2, from '/var/www/html/project/media/video/original/SIRMIONE.mp4':
  Metadata:
    major_brand     : mp42
    minor_version   : 0
    compatible_brands: mp42mp41
    creation_time   : 2022-05-05T18:18:26.000000Z
  Duration: 00:02:17.30, start: 0.000000, bitrate: 6272 kb/s
    Stream #0:0(eng): Video: h264 (Main), 1 reference frame (avc1 / 0x31637661), yuv420p(tv, bt709, left), 1440x1080 (1440x1088) [SAR 4:3 DAR 16:9], 5947 kb/s, 29.97 fps, 29.97 tbr, 30k tbn, 59.94 tbc (default)
    Metadata:
      creation_time   : 2022-05-05T18:18:26.000000Z
      handler_name    : ?Mainconcept Video Media Handler
      encoder         : AVC Coding
    Stream #0:1(eng): Audio: aac (LC) (mp4a / 0x6134706D), 48000 Hz, stereo, fltp, 317 kb/s (default)
    Metadata:
      creation_time   : 2022-05-05T18:18:26.000000Z
      handler_name    : #Mainconcept MP4 Sound Media Handler
Input #1, png_pipe, from '/var/www/html/project/static/images/templates/logo.png':
  Duration: N/A, bitrate: N/A
    Stream #1:0: Video: png, 1 reference frame, rgba(pc), 1920x1080 [SAR 2835:2835 DAR 16:9], 25 tbr, 25 tbn, 25 tbc
[h264 @ 0x55ff0d45fa80] Reinit context to 1280x720, pix_fmt: yuv420p
Input #2, mov,mp4,m4a,3gp,3g2,mj2, from '/var/www/html/project/static/images/templates/Codino.mp4':
  Metadata:
    major_brand     : mp42
    minor_version   : 1
    compatible_brands: isommp41mp42
    creation_time   : 2021-07-11T07:02:58.000000Z
  Duration: 00:00:02.00, start: 0.000000, bitrate: 1007 kb/s
    Stream #2:0(ita): Audio: aac (LC) (mp4a / 0x6134706D), 44100 Hz, stereo, fltp, 102 kb/s (default)
    Metadata:
      creation_time   : 2021-07-11T07:02:58.000000Z
      handler_name    : Core Media Audio
    Stream #2:1(und): Video: h264 (High), 1 reference frame (avc1 / 0x31637661), yuv420p(tv, bt709, progressive, left), 1280x720 [SAR 1:1 DAR 16:9], 813 kb/s, 25 fps, 25 tbr, 25k tbn, 50k tbc (default)
    Metadata:
      creation_time   : 2021-07-11T07:02:58.000000Z
      handler_name    : Core Media Video
[Parsed_scale_0 @ 0x55ff0d5e1d40] w:1280 h:720 flags:'bilinear' interl:0
[Parsed_scale_2 @ 0x55ff0d4a1340] w:1280 h:720 flags:'bilinear' interl:0
[Parsed_scale_4 @ 0x55ff0d4a5100] w:1280 h:720 flags:'bilinear' interl:0
Stream mapping:
  Stream #0:0 (h264) -> scale
  Stream #0:1 (aac) -> concat:in0:a0
  Stream #1:0 (png) -> scale
  Stream #2:0 (aac) -> concat:in1:a0
  Stream #2:1 (h264) -> scale
  concat:out:v0 -> Stream #0:0 (libx264)
  concat:out:a0 -> Stream #0:1 (aac)
Press [q] to stop, [?] for help
[h264 @ 0x55ff0d575100] Reinit context to 1440x1088, pix_fmt: yuv420p
[h264 @ 0x55ff0d945c40] Reinit context to 1280x720, pix_fmt: yuv420p
[Parsed_scale_0 @ 0x55ff0eadd000] w:1280 h:720 flags:'bilinear' interl:0
[Parsed_scale_2 @ 0x55ff0eadd640] w:1280 h:720 flags:'bilinear' interl:0
[Parsed_scale_4 @ 0x55ff0eae6e00] w:1280 h:720 flags:'bilinear' interl:0
[graph 0 input from stream 0:0 @ 0x55ff0eaeb600] w:1440 h:1080 pixfmt:yuv420p tb:1/30000 fr:30000/1001 sar:4/3 sws_param:flags=2
[graph 0 input from stream 1:0 @ 0x55ff0eaec680] w:1920 h:1080 pixfmt:rgba tb:1/25 fr:25/1 sar:2835/2835 sws_param:flags=2
[graph 0 input from stream 2:1 @ 0x55ff0eaed700] w:1280 h:720 pixfmt:yuv420p tb:1/25000 fr:25/1 sar:1/1 sws_param:flags=2
[graph_0_in_0_1 @ 0x55ff0eaee6c0] tb:1/48000 samplefmt:fltp samplerate:48000 chlayout:0x3
[graph_0_in_2_0 @ 0x55ff0eaef800] tb:1/44100 samplefmt:fltp samplerate:44100 chlayout:0x3
[Parsed_concat_7 @ 0x55ff0eae9640] auto-inserting filter 'auto_resampler_0' between the filter 'graph_0_in_2_0' and the filter 'Parsed_concat_7'
[Parsed_scale_0 @ 0x55ff0eadd000] w:1440 h:1080 fmt:yuv420p sar:4/3 -> w:1280 h:720 fmt:yuv420p sar:1/1 flags:0x2
[Parsed_setsar_1 @ 0x55ff0eadd1c0] w:1280 h:720 sar:1/1 dar:16/9 -> sar:1/1 dar:16/9
[Parsed_scale_2 @ 0x55ff0eadd640] w:1920 h:1080 fmt:rgba sar:2835/2835 -> w:1280 h:720 fmt:yuva420p sar:1/1 flags:0x2
[Parsed_setsar_3 @ 0x55ff0eae6340] w:1280 h:720 sar:1/1 dar:16/9 -> sar:1/1 dar:16/9
[Parsed_overlay_6 @ 0x55ff0eae8540] main w:1280 h:720 fmt:yuv420p overlay w:1280 h:720 fmt:yuva420p
[Parsed_overlay_6 @ 0x55ff0eae8540] [framesync @ 0x55ff0eae86a8] Selected 1/30000 time base
[Parsed_overlay_6 @ 0x55ff0eae8540] [framesync @ 0x55ff0eae86a8] Sync level 2
[Parsed_scale_4 @ 0x55ff0eae6e00] w:1280 h:720 fmt:yuv420p sar:1/1 -> w:1280 h:720 fmt:yuv420p sar:1/1 flags:0x2
[Parsed_setsar_5 @ 0x55ff0eae78c0] w:1280 h:720 sar:1/1 dar:16/9 -> sar:1/1 dar:16/9
[auto_resampler_0 @ 0x55ff0eaf65c0] ch:2 chl:stereo fmt:fltp r:44100Hz -> ch:2 chl:stereo fmt:fltp r:48000Hz
[libx264 @ 0x55ff0d42e440] using SAR=1/1
[libx264 @ 0x55ff0d42e440] using cpu capabilities: MMX2 SSE2Fast SSSE3 SSE4.2 AVX FMA3 BMI2 AVX2
[libx264 @ 0x55ff0d42e440] profile High, level 3.1
[libx264 @ 0x55ff0d42e440] 264 - core 155 r2917 0a84d98 - H.264/MPEG-4 AVC codec - Copyleft 2003-2018 - http://www.videolan.org/x264.html - options: cabac=1 ref=1 deblock=1:0:0 analyse=0x3:0x113 me=hex subme=2 psy=1 psy_rd=1.00:0.00 mixed_ref=0 me_range=16 chroma_me=1 trellis=0 8x8dct=1 cqm=0 deadzone=21,11 fast_pskip=1 chroma_qp_offset=0 threads=22 lookahead_threads=5 sliced_threads=0 nr=0 decimate=1 interlaced=0 bluray_compat=0 constrained_intra=0 bframes=3 b_pyramid=2 b_adapt=1 b_bias=0 direct=1 weightb=1 open_gop=0 weightp=1 keyint=250 keyint_min=25 scenecut=40 intra_refresh=0 rc_lookahead=10 rc=crf mbtree=1 crf=18.0 qcomp=0.60 qpmin=0 qpmax=69 qpstep=4 ip_ratio=1.40 aq=1:1.00
Output #0, mp4, to '/var/www/html/project/media/video/watermarks/SIRMIONE.mp4':
  Metadata:
    major_brand     : mp42
    minor_version   : 0
    compatible_brands: mp42mp41
    encoder         : Lavf58.29.100
    Stream #0:0: Video: h264 (libx264), 1 reference frame (avc1 / 0x31637661), yuv420p(progressive), 1280x720 [SAR 1:1 DAR 16:9], q=-1--1, 29.97 fps, 30k tbn, 29.97 tbc (default)
    Metadata:
      encoder         : Lavc58.54.100 libx264
    Side data:
      cpb: bitrate max/min/avg: 0/0/0 buffer size: 0 vbv_delay: -1
    Stream #0:1: Audio: aac (LC) (mp4a / 0x6134706D), 48000 Hz, stereo, fltp, delay 1024, 128 kb/s (default)
    Metadata:
      encoder         : Lavc58.54.100 aac
[Parsed_overlay_6 @ 0x55ff0eae8540] [framesync @ 0x55ff0eae86a8] Sync level 0
[Parsed_concat_7 @ 0x55ff0eae9640] EOF on in0:v0, 1 streams left in segment.
[Parsed_concat_7 @ 0x55ff0eae9640] EOF on in0:a0, 0 streams left in segment.
[Parsed_concat_7 @ 0x55ff0eae9640] Segment finished at pts=137280000
[Parsed_concat_7 @ 0x55ff0eae9640] EOF on in1:v0, 1 streams left in segment.
[Parsed_concat_7 @ 0x55ff0eae9640] EOF on in1:a0, 0 streams left in segment.
[Parsed_concat_7 @ 0x55ff0eae9640] Segment finished at pts=139298687
No more output streams to write to, finishing.
frame= 4164 fps=168 q=-1.0 Lsize=   71480kB time=00:02:19.30 bitrate=4203.4kbits/s speed=5.61x    
[AVIOContext @ 0x55ff0d427440] Statistics: 0 seeks, 50 writeouts
video:69158kB audio:2171kB subtitle:0kB other streams:0kB global headers:0kB muxing overhead: 0.210532%
Input file #0 (/var/www/html/project/media/video/original/SIRMIONE.mp4):
  Input stream #0:0 (video): 4114 packets read (102054275 bytes); 4114 frames decoded; 
  Input stream #0:1 (audio): 6435 packets read (5446024 bytes); 6435 frames decoded (6589440 samples); 
  Total: 10549 packets (107500299 bytes) demuxed
Input file #1 (/var/www/html/project/static/images/templates/logo.png):
  Input stream #1:0 (video): 1 packets read (111578 bytes); 1 frames decoded; 
  Total: 1 packets (111578 bytes) demuxed
Input file #2 (/var/www/html/project/static/images/templates/Codino.mp4):
  Input stream #2:0 (audio): 89 packets read (26579 bytes); 87 frames decoded (89024 samples); 
  Input stream #2:1 (video): 50 packets read (203365 bytes); 50 frames decoded; 
  Total: 139 packets (229944 bytes) demuxed
Output file #0 (/var/www/html/project/media/video/watermarks/SIRMIONE.mp4):
  Output stream #0:0 (video): 4164 frames encoded; 4164 packets muxed (70817942 bytes); 
  Output stream #0:1 (audio): 6530 frames encoded (6686337 samples); 6531 packets muxed (2223376 bytes); 
  Total: 10695 packets (73041318 bytes) muxed
[AVIOContext @ 0x55ff0d55af40] Statistics: 2 seeks, 282 writeouts
[libx264 @ 0x55ff0d42e440] frame I:45    Avg QP:15.15  size:124261
[libx264 @ 0x55ff0d42e440] frame P:1197  Avg QP:18.48  size: 34287
[libx264 @ 0x55ff0d42e440] frame B:2922  Avg QP:21.01  size:  8276
[libx264 @ 0x55ff0d42e440] consecutive B-frames:  2.8%  8.9%  5.6% 82.6%
[libx264 @ 0x55ff0d42e440] mb I  I16..4: 15.5% 16.8% 67.7%
[libx264 @ 0x55ff0d42e440] mb P  I16..4:  8.9% 11.5%  8.4%  P16..4: 29.6% 14.7% 10.2%  0.0%  0.0%    skip:16.7%
[libx264 @ 0x55ff0d42e440] mb B  I16..4:  1.3%  1.4%  0.6%  B16..8: 17.2%  8.5%  1.8%  direct: 8.0%  skip:61.2%  L0:36.3% L1:41.2% BI:22.5%
[libx264 @ 0x55ff0d42e440] 8x8 transform intra:38.3% inter:26.7%
[libx264 @ 0x55ff0d42e440] coded y,uvDC,uvAC intra: 60.9% 32.4% 12.6% inter: 15.4% 8.4% 0.7%
[libx264 @ 0x55ff0d42e440] i16 v,h,dc,p: 34% 41% 17%  8%
[libx264 @ 0x55ff0d42e440] i8 v,h,dc,ddl,ddr,vr,hd,vl,hu: 13% 47% 17%  3%  3%  2%  6%  2%  6%
[libx264 @ 0x55ff0d42e440] i4 v,h,dc,ddl,ddr,vr,hd,vl,hu: 13% 43% 10%  4%  5%  4%  8%  3%  9%
[libx264 @ 0x55ff0d42e440] i8c dc,h,v,p: 62% 23% 12%  3%
[libx264 @ 0x55ff0d42e440] Weighted P-Frames: Y:7.1% UV:0.9%
[libx264 @ 0x55ff0d42e440] kb/s:4067.84
[aac @ 0x55ff0d42d840] Qavg: 1840.244
[AVIOContext @ 0x55ff0d430380] Statistics: 107598916 bytes read, 1 seeks
[AVIOContext @ 0x55ff0d5a45c0] Statistics: 111578 bytes read, 0 seeks
[AVIOContext @ 0x55ff0d5e8f80] Statistics: 1530915 bytes read, 42 seeks
